<svg width="20" height="18" viewBox="0 0 20 18" fill="none" xmlns="http://www.w3.org/2000/svg">
<path d="M9 18V16H17V8.9C17 6.95 16.321 5.296 14.963 3.938C13.605 2.58 11.9507 1.90067 10 1.9C8.04933 1.89933 6.39533 2.57867 5.038 3.938C3.68067 5.29733 3.00133 6.95133 3 8.9V15H0V9.275H1L1.075 7.95C1.20833 6.81667 1.53767 5.76667 2.063 4.8C2.58833 3.83333 3.24667 2.99167 4.038 2.275C4.82933 1.55833 5.73733 1 6.762 0.6C7.78667 0.2 8.866 0 10 0C11.134 0 12.209 0.2 13.225 0.6C14.241 1 15.1493 1.55433 15.95 2.263C16.7507 2.97167 17.409 3.809 17.925 4.775C18.441 5.741 18.7743 6.791 18.925 7.925L19 9.275H20V15H19V18H9ZM7 11C6.71667 11 6.47933 10.904 6.288 10.712C6.09667 10.52 6.00067 10.2827 6 10C5.99933 9.71733 6.09533 9.48 6.288 9.288C6.48067 9.096 6.718 9 7 9C7.282 9 7.51967 9.096 7.713 9.288C7.90633 9.48 8.002 9.71733 8 10C7.998 10.2827 7.902 10.5203 7.712 10.713C7.522 10.9057 7.28467 11.0013 7 11ZM13 11C12.7167 11 12.4793 10.904 12.288 10.712C12.0967 10.52 12.0007 10.2827 12 10C11.9993 9.71733 12.0953 9.48 12.288 9.288C12.4807 9.096 12.718 9 13 9C13.282 9 13.5197 9.096 13.713 9.288C13.9063 9.48 14.002 9.71733 14 10C13.998 10.2827 13.902 10.5203 13.712 10.713C13.522 10.9057 13.2847 11.0013 13 11ZM4.025 9.45C3.90833 7.68333 4.44167 6.16667 5.625 4.9C6.80833 3.63333 8.28333 3 10.05 3C11.5333 3 12.8377 3.47067 13.963 4.412C15.0883 5.35333 15.7673 6.558 16 8.026C14.4833 8.00867 13.0877 7.6 11.813 6.8C10.5383 6 9.559 4.91667 8.875 3.55C8.60833 4.88333 8.046 6.071 7.188 7.113C6.33 8.155 5.27567 8.934 4.025 9.45Z" fill="#032D71"/>
</svg>
