<svg width="33" height="33" viewBox="0 0 33 33" fill="none" xmlns="http://www.w3.org/2000/svg">
<g clip-path="url(#clip0_193_45312)">
<path fill-rule="evenodd" clip-rule="evenodd" d="M23.0937 7.9912C25.2537 7.9912 27.5433 9.18 29.1737 11.236C23.8297 14.1976 24.6985 21.9144 30.0985 23.9768C29.3545 25.6408 28.9993 26.3848 28.0425 27.8584C26.7065 29.9128 24.8265 32.4728 22.4921 32.4952C20.4201 32.5144 19.8873 31.1304 17.0745 31.1464C14.2617 31.1624 13.6745 32.5192 11.6025 32.5C9.26965 32.4776 7.48565 30.1672 6.14965 28.1112C2.41525 22.364 2.02485 15.62 4.32885 12.036C5.96565 9.4856 8.54645 7.9928 10.9753 7.9928C13.4473 7.9928 15.0009 9.364 17.0457 9.364C19.0297 9.364 20.2361 7.9912 23.0937 7.9912ZM22.4665 0.5C22.7545 2.444 21.9641 4.348 20.9257 5.6952C19.8137 7.1384 17.8985 8.2568 16.0457 8.1992C15.7097 6.3384 16.5769 4.4232 17.6297 3.132C18.7865 1.708 20.7705 0.6184 22.4665 0.5Z" fill="black"/>
</g>
<defs>
<clipPath id="clip0_193_45312">
<rect width="32" height="32" fill="white" transform="translate(0.5 0.5)"/>
</clipPath>
</defs>
</svg>
